<?xml version="1.0" standalone="no"?>
<!DOCTYPE svg PUBLIC "-//W3C//DTD SVG 20010904//EN"
 "http://www.w3.org/TR/2001/REC-SVG-20010904/DTD/svg10.dtd">
<svg version="1.0" xmlns="http://www.w3.org/2000/svg"
 width="700.000000pt" height="700.000000pt" viewBox="0 0 700.000000 700.000000"
 preserveAspectRatio="xMidYMid meet">
<metadata>
Created by potrace 1.11, written by Peter Selinger 2001-2013
</metadata>
<g transform="translate(0.000000,700.000000) scale(0.100000,-0.100000)"
fill="#000000" stroke="none">
<path d="M3491 6236 c-8 -9 -11 -16 -7 -16 4 0 -1 -11 -10 -25 -9 -14 -14 -32
-10 -40 3 -8 1 -14 -5 -12 -10 2 -60 -106 -62 -135 -1 -9 -5 -14 -9 -12 -8 5
-11 -5 -11 -38 0 -10 -3 -16 -7 -13 -4 2 -19 -24 -33 -58 -32 -76 -104 -245
-117 -272 -75 -163 -90 -199 -90 -209 0 -7 -4 -16 -9 -21 -5 -6 -21 -39 -36
-75 -15 -36 -36 -84 -47 -107 -11 -23 -16 -48 -12 -54 4 -7 3 -9 -3 -6 -13 8
-86 -160 -77 -175 4 -6 3 -8 -3 -5 -12 7 -35 -47 -26 -57 4 -3 1 -6 -5 -6 -10
0 -33 -54 -31 -74 0 -5 -4 -12 -9 -15 -16 -10 -72 -152 -65 -164 3 -7 2 -8 -3
-4 -10 10 -56 -91 -47 -106 3 -5 1 -7 -4 -4 -16 10 -24 -35 -10 -52 10 -14 10
-14 -5 -3 -14 11 -17 10 -23 -10 -4 -13 -20 -51 -36 -86 -16 -35 -29 -65 -29
-67 0 -2 -19 -43 -41 -91 -23 -49 -42 -93 -43 -99 -1 -5 -10 -28 -20 -50 -10
-22 -29 -62 -41 -90 -13 -27 -30 -66 -38 -85 -9 -19 -31 -70 -51 -112 -19 -43
-32 -78 -29 -78 3 0 1 -6 -5 -12 -5 -7 -26 -51 -47 -98 -20 -47 -47 -105 -58
-130 -11 -25 -21 -47 -22 -50 -8 -25 -28 -70 -42 -95 l-16 -30 36 34 c20 19
33 39 30 45 -3 6 -3 8 2 4 11 -10 216 193 208 206 -3 6 -2 8 2 3 11 -10 486
464 478 476 -3 6 -2 7 4 4 5 -3 128 113 273 259 145 145 267 264 270 264 4 0
13 -7 20 -15 7 -8 17 -12 24 -8 6 3 7 2 3 -2 -10 -11 213 -236 226 -228 6 3 7
2 4 -3 -8 -13 307 -327 318 -317 4 5 5 3 2 -3 -6 -10 54 -78 64 -72 2 2 3 1 1
-1 -5 -9 131 -140 140 -135 5 3 7 1 6 -3 -5 -14 84 -103 95 -96 6 3 7 2 4 -4
-8 -12 307 -325 318 -316 4 5 5 3 2 -3 -3 -6 12 -28 34 -50 l40 -39 -36 77
c-19 42 -35 81 -35 87 0 6 -3 11 -8 11 -4 0 -12 17 -19 38 -6 20 -30 76 -52
124 -23 48 -41 93 -41 100 -1 20 -26 49 -35 40 -5 -4 -5 -2 -2 4 11 19 -13 74
-31 74 -14 0 -14 2 -3 9 11 7 10 14 -5 37 -11 15 -18 31 -17 34 1 3 -6 23 -16
45 -10 22 -19 45 -21 50 -1 6 -9 19 -16 30 -8 11 -14 25 -14 32 0 6 -16 47
-36 90 -20 43 -44 96 -54 118 -10 22 -29 65 -43 95 -50 110 -107 248 -107 259
0 6 -4 11 -10 11 -5 0 -10 6 -10 13 0 24 -36 88 -45 80 -4 -4 -5 -3 -1 4 7 12
0 33 -39 118 -13 28 -30 67 -39 88 -43 101 -97 224 -144 329 -9 20 -20 34 -23
32 -4 -2 -5 6 -1 18 4 16 2 19 -8 13 -8 -5 -11 -4 -6 3 4 6 2 19 -3 29 -5 10
-47 104 -92 208 -45 105 -87 193 -93 197 -6 4 -8 8 -4 8 4 0 2 13 -3 30 -6 16
-15 27 -20 24 -5 -3 -6 1 -4 8 7 17 -39 110 -49 101 -4 -4 -4 0 -1 8 6 16 -42
131 -57 137 -5 2 -5 8 -2 13 3 6 1 15 -4 22 -6 7 -19 34 -29 60 -17 42 -21 46
-32 33z m39 -636 c0 -5 -4 -10 -10 -10 -5 0 -10 5 -10 10 0 6 5 10 10 10 6 0
10 -4 10 -10z m1 -117 c13 -16 12 -17 -3 -4 -10 7 -18 15 -18 17 0 8 8 3 21
-13z m313 -369 c3 -8 2 -12 -4 -9 -6 3 -10 10 -10 16 0 14 7 11 14 -7z m-399
-362 c-3 -3 -11 0 -18 7 -9 10 -8 11 6 5 10 -3 15 -9 12 -12z m575 -66 c0 -2
-8 -10 -17 -17 -16 -13 -17 -12 -4 4 13 16 21 21 21 13z m-1045 -246 c-3 -5
-12 -10 -18 -10 -7 0 -6 4 3 10 19 12 23 12 15 0z m120 0 c-3 -5 -12 -10 -18
-10 -7 0 -6 4 3 10 19 12 23 12 15 0z m1115 -474 c0 -2 -7 -7 -16 -10 -8 -3
-12 -2 -9 4 6 10 25 14 25 6z m280 -40 c0 -3 -4 -8 -10 -11 -5 -3 -10 -1 -10
4 0 6 5 11 10 11 6 0 10 -2 10 -4z m-2070 -380 c0 -2 -8 -10 -17 -17 -16 -13
-17 -12 -4 4 13 16 21 21 21 13z"/>
<path d="M2887 3675 l-614 -613 613 -613 c337 -337 615 -611 618 -609 64 59
1216 1217 1216 1222 0 4 -274 281 -610 617 l-610 610 -613 -614z"/>
<path d="M2306 2700 c15 -25 31 -47 36 -48 4 -2 6 -7 3 -12 -3 -5 1 -14 8 -22
7 -7 18 -26 25 -41 7 -17 17 -25 24 -21 7 4 8 3 4 -5 -4 -6 6 -33 21 -59 16
-26 32 -55 36 -65 4 -11 12 -15 18 -11 8 4 9 3 5 -5 -5 -7 2 -28 16 -49 13
-20 32 -54 43 -74 10 -20 23 -34 28 -31 6 3 7 1 3 -5 -6 -9 16 -53 73 -142 8
-14 14 -29 13 -33 -1 -4 5 -10 13 -13 8 -4 15 -12 15 -19 0 -20 67 -125 75
-117 4 4 5 -2 3 -13 -2 -13 2 -19 10 -17 8 1 11 -2 8 -7 -8 -12 4 -42 13 -36
4 2 8 -1 8 -8 0 -7 17 -43 37 -80 34 -59 40 -66 55 -55 14 11 14 11 4 -3 -13
-16 -11 -19 94 -207 17 -31 37 -56 43 -54 6 1 10 -3 9 -10 -3 -26 1 -39 11
-33 5 3 7 0 4 -8 -3 -8 0 -18 5 -22 6 -3 18 -21 26 -38 8 -18 19 -39 24 -47
16 -24 85 -142 100 -172 8 -15 19 -25 24 -21 6 3 7 1 4 -4 -4 -6 12 -43 36
-83 87 -147 97 -165 104 -180 3 -8 9 -17 12 -20 3 -3 17 -26 30 -53 21 -41 26
-45 40 -35 14 11 14 11 3 -4 -10 -13 -11 -22 -2 -38 6 -11 15 -18 21 -15 5 4
9 3 8 -2 -5 -32 4 -32 21 0 11 21 17 43 14 50 -4 7 -4 9 1 5 9 -9 21 9 107
161 33 57 57 109 54 117 -3 8 0 11 8 8 11 -4 25 12 30 36 1 3 9 16 17 30 50
79 139 238 139 247 0 6 4 13 8 15 7 3 62 94 125 208 13 25 46 80 71 124 26 43
45 84 42 92 -3 9 0 11 11 7 13 -5 15 -1 9 23 -4 19 -3 24 3 15 6 -10 20 6 51
60 23 41 59 103 80 139 72 124 80 141 74 152 -4 7 -2 8 4 4 6 -4 18 9 28 31
10 21 21 40 24 43 8 6 50 79 50 86 0 3 -5 2 -12 -2 -7 -4 -8 -3 -4 5 4 6 11 9
15 6 11 -6 33 44 25 56 -3 5 0 8 6 7 6 -2 26 23 44 54 17 32 37 63 44 70 7 7
12 20 12 30 0 10 3 18 8 18 4 0 16 17 27 38 11 20 35 62 53 92 33 54 32 53
-69 -47 -56 -57 -105 -103 -108 -103 -3 0 -15 -14 -26 -30 -11 -16 -23 -30
-27 -30 -14 0 -47 -43 -41 -53 3 -6 2 -7 -4 -4 -6 4 -31 -15 -56 -41 -143
-147 -855 -852 -861 -852 -4 0 -13 6 -19 13 -86 93 -117 125 -117 119 0 -4 -8
5 -18 21 -10 15 -21 25 -24 22 -2 -3 -11 6 -18 20 -7 14 -19 25 -27 25 -7 0
-13 4 -13 8 0 5 -14 22 -31 38 -17 16 -40 40 -52 53 -54 59 -140 136 -149 133
-5 -1 -7 1 -4 6 7 12 -58 74 -69 65 -4 -5 -5 -3 -2 3 4 6 -8 25 -26 42 -17 17
-37 37 -43 44 -6 7 -43 44 -83 82 -39 37 -71 72 -71 78 0 5 -4 6 -10 3 -5 -3
-10 -2 -10 3 0 13 -140 147 -151 145 -5 -2 -8 1 -6 5 4 15 -73 93 -85 86 -6
-4 -8 -3 -5 3 4 6 -7 22 -23 37 -17 14 -30 31 -30 38 0 6 -2 9 -5 6 -3 -3 -33
22 -66 56 l-61 61 28 -45z m418 -498 c3 -5 -1 -9 -9 -9 -8 0 -12 4 -9 9 3 4 7
8 9 8 2 0 6 -4 9 -8z m4 -127 c-3 -3 -9 2 -12 12 -6 14 -5 15 5 6 7 -7 10 -15
7 -18z m883 -1112 c13 -16 12 -17 -3 -4 -10 7 -18 15 -18 17 0 8 8 3 21 -13z
m-87 -49 c3 -8 2 -12 -4 -9 -6 3 -10 10 -10 16 0 14 7 11 14 -7z"/>
</g>
</svg>
